<svg xmlns="http://www.w3.org/2000/svg" viewBox="0 0 195.57 33.44"><defs><style>.cls-1{fill:#fff;}</style></defs><g id="Calque_2" data-name="Calque 2"><g id="Calque_1-2" data-name="Calque 1"><path class="cls-1" d="M13.57,7.56q4.91,0,7.2,2a6.46,6.46,0,0,1,2.34,5.18,11.1,11.1,0,0,1-.29,2.42,12.18,12.18,0,0,1-2.55,5.18,13,13,0,0,1-4.61,3.42,14.46,14.46,0,0,1-5.87,1.19c-3.33,0-5.81-.66-7.41-2A6.64,6.64,0,0,1,0,19.62a12.29,12.29,0,0,1,.29-2.48,11.43,11.43,0,0,1,2.59-5A13.17,13.17,0,0,1,7.6,8.78,14.86,14.86,0,0,1,13.57,7.56Zm-.11,3.2c-.5,0-1,.46-1.62,1.37a24.94,24.94,0,0,0-2,5.08,21.66,21.66,0,0,0-1.15,5.25A1.74,1.74,0,0,0,9,23.54a.94.94,0,0,0,.69.26c.5,0,1-.39,1.55-1.3a28,28,0,0,0,2.05-5.33,19.26,19.26,0,0,0,1.11-5.07,1.61,1.61,0,0,0-.25-1A.76.76,0,0,0,13.46,10.76Z"/><path class="cls-1" d="M44.63,21.64a1,1,0,0,0-.07.43.57.57,0,0,0,.11.39.46.46,0,0,0,.36.15.91.91,0,0,0,.72-.36c.21-.27.36-.4.43-.4s.21.09.29.25a1.27,1.27,0,0,1,.1.54,3.28,3.28,0,0,1-.68,2.06,5.55,5.55,0,0,1-2.12,1.62,8.27,8.27,0,0,1-3.32.61,6.06,6.06,0,0,1-3.78-1.08,3.73,3.73,0,0,1-1.44-3,8.34,8.34,0,0,1,.65-3l2-5.19A2.21,2.21,0,0,0,38,14a.88.88,0,0,0-.32-.72A1,1,0,0,0,37,13a2.16,2.16,0,0,0-1.41.65,4.5,4.5,0,0,0-1.11,2v-.07l-2.27,7.31a3.31,3.31,0,0,0-.11.76,1.39,1.39,0,0,0,.18.75,2.45,2.45,0,0,0,.51.51,2.91,2.91,0,0,1,.36.43.43.43,0,0,1,0,.39,1.2,1.2,0,0,1-.72.69,4.84,4.84,0,0,1-1.65.21H22.6a2.55,2.55,0,0,1-1.37-.28.73.73,0,0,1-.29-.83,1.46,1.46,0,0,1,.76-.76,3.33,3.33,0,0,0,.9-.68,3.35,3.35,0,0,0,.61-1.26l5.47-18a1.78,1.78,0,0,0,.11-.54.91.91,0,0,0-.22-.64,2.38,2.38,0,0,0-.5-.51,4,4,0,0,1-.54-.5.67.67,0,0,1,0-.58c.15-.55.9-1,2.27-1.44A14.88,14.88,0,0,1,34.05,0a4.81,4.81,0,0,1,3.06.79,2.6,2.6,0,0,1,1,2.16,4.79,4.79,0,0,1-.25,1.55l-1.94,6.34a8.12,8.12,0,0,1,2.95-2.56,8.19,8.19,0,0,1,3.42-.72,4.77,4.77,0,0,1,3.53,1.33,4.62,4.62,0,0,1,1.37,3.46,6.88,6.88,0,0,1-.36,2.19Z"/><path class="cls-1" d="M82.36,21.64a.94.94,0,0,0-.08.43.62.62,0,0,0,.11.39.49.49,0,0,0,.36.15.88.88,0,0,0,.72-.36c.22-.27.36-.4.43-.4s.22.09.29.25a1.27,1.27,0,0,1,.11.54,3.34,3.34,0,0,1-.68,2.06,5.51,5.51,0,0,1-2.13,1.62,8.19,8.19,0,0,1-3.31.61,6.06,6.06,0,0,1-3.78-1.08,3.67,3.67,0,0,1-1.44-3,8.34,8.34,0,0,1,.65-3l2-5.19a2.21,2.21,0,0,0,.18-.75.86.86,0,0,0-.33-.72,1,1,0,0,0-.72-.29,2,2,0,0,0-1.26.54,4.57,4.57,0,0,0-1.15,1.69l-2,6.45a1,1,0,0,0-.07.43.62.62,0,0,0,.11.39.46.46,0,0,0,.36.15.88.88,0,0,0,.72-.36c.21-.27.36-.4.43-.4s.22.09.29.25a1.27,1.27,0,0,1,.11.54,3.36,3.36,0,0,1-.69,2.06,5.55,5.55,0,0,1-2.12,1.62,8.22,8.22,0,0,1-3.31.61,6,6,0,0,1-3.78-1.08,3.67,3.67,0,0,1-1.44-3,8.31,8.31,0,0,1,.64-3l2-5.19a2.21,2.21,0,0,0,.18-.75.85.85,0,0,0-.32-.72A1,1,0,0,0,62.7,13a2,2,0,0,0-1.26.54,3.74,3.74,0,0,0-1.08,1.66L58,22.86a2.36,2.36,0,0,0-.14.76,1.37,1.37,0,0,0,.18.72,4.61,4.61,0,0,0,.5.54,1.56,1.56,0,0,1,.36.39.49.49,0,0,1,0,.43,1.08,1.08,0,0,1-.68.69,5.06,5.06,0,0,1-1.7.21h-8.2A2.39,2.39,0,0,1,47,26.32a.79.79,0,0,1-.32-.83,1.46,1.46,0,0,1,.76-.76A2.7,2.7,0,0,0,49,22.79l3.2-10.41a1.33,1.33,0,0,0,.07-.5.92.92,0,0,0-.18-.61,2.56,2.56,0,0,0-.5-.54,2.12,2.12,0,0,1-.5-.51.64.64,0,0,1,0-.57c.14-.55.9-1,2.27-1.44a14.18,14.18,0,0,1,4.28-.65,3.8,3.8,0,0,1,2.77,1,3.34,3.34,0,0,1,1,2.67,8.76,8.76,0,0,1,3.1-2.85A8.1,8.1,0,0,1,68,7.56a4.78,4.78,0,0,1,3.39,1.22,4.49,4.49,0,0,1,1.47,3.14,9.35,9.35,0,0,1,3.31-3.39,7.85,7.85,0,0,1,3.86-1,4.73,4.73,0,0,1,3.52,1.33,4.59,4.59,0,0,1,1.37,3.46,6.88,6.88,0,0,1-.36,2.19Z"/><path class="cls-1" d="M104.57,7.56a2.93,2.93,0,0,1,2.52,1.3,5.5,5.5,0,0,1,1,3.45,13.78,13.78,0,0,1-.68,4.11,26.81,26.81,0,0,1-4.28,8.35,24.77,24.77,0,0,1-6.74,6.3,14.13,14.13,0,0,1-7.56,2.37,7.58,7.58,0,0,1-3.24-.64,4.84,4.84,0,0,1-2-1.73,4.09,4.09,0,0,1-.72-2.31A4.4,4.4,0,0,1,83,27.58,2.85,2.85,0,0,1,84.09,26a3,3,0,0,1,1.8-.54,3.55,3.55,0,0,1,2.7,1.11A5.72,5.72,0,0,1,90,29.74a6.54,6.54,0,0,0,4.24-2,5,5,0,0,1-2.73-1.23,5.5,5.5,0,0,1-1.19-2.88l-1.44-8.82a2,2,0,0,0-.32-.93.56.56,0,0,0-.51-.29,1.11,1.11,0,0,0-.61.25,1,1,0,0,1-.47.25c-.19,0-.29-.2-.29-.61a3.59,3.59,0,0,1,.18-1.08A7.13,7.13,0,0,1,89.24,9a6.28,6.28,0,0,1,4.1-1.44,4,4,0,0,1,3.38,1.37,8,8,0,0,1,1.44,4.21L99.24,21c.08.6.29.9.65.9s.94-.38,1.51-1.15a14.94,14.94,0,0,0,1.7-3.35,6.64,6.64,0,0,1-1.66-2.23,6.48,6.48,0,0,1-.58-2.7,6.64,6.64,0,0,1,.29-2,4.24,4.24,0,0,1,1.33-2.16A3.23,3.23,0,0,1,104.57,7.56Z"/><path class="cls-1" d="M122.5,0a11.1,11.1,0,0,1,5.76,1.19,3.32,3.32,0,0,1,2,2.84,2.44,2.44,0,0,1-1.15,2.13,5.4,5.4,0,0,1-3,.72,3.83,3.83,0,0,1-2.62-.83,2.62,2.62,0,0,1-.94-2A3.25,3.25,0,0,1,123,2.41a2.92,2.92,0,0,0-1.8.54,3.33,3.33,0,0,0-1.12,1.77,5.72,5.72,0,0,0-.21,1.47,2.8,2.8,0,0,0,.28,1.37,1.05,1.05,0,0,0,.9.47h2.13c1.25,0,1.87.38,1.87,1.15a1.77,1.77,0,0,1-.07.43,1.92,1.92,0,0,1-.9,1.19,3.91,3.91,0,0,1-2,.4H121l-3.57,11.66a3.24,3.24,0,0,0-.1.76,1.39,1.39,0,0,0,.18.75,2.38,2.38,0,0,0,.5.51,2,2,0,0,1,.36.43.46.46,0,0,1,0,.39,1.2,1.2,0,0,1-.72.69,4.91,4.91,0,0,1-1.66.21h-8.21a2.57,2.57,0,0,1-1.37-.28.72.72,0,0,1-.28-.83,1.41,1.41,0,0,1,.75-.76,3.33,3.33,0,0,0,.9-.68,3.21,3.21,0,0,0,.61-1.26l2.81-9.22a3.49,3.49,0,0,0,.18-1.11,1.76,1.76,0,0,0-.32-1.12,4.51,4.51,0,0,0-.9-.94,5.29,5.29,0,0,1-.61-.54.94.94,0,0,1-.18-.57,1,1,0,0,1,.46-1,4.69,4.69,0,0,1,2-.29h.9a6.57,6.57,0,0,1-.25-1.8,6,6,0,0,1,.32-1.87,6.1,6.1,0,0,1,2.92-3.1A14.09,14.09,0,0,1,122.5,0Z"/><path class="cls-1" d="M136.72,7.56q4.91,0,7.2,2a6.46,6.46,0,0,1,2.34,5.18,11.68,11.68,0,0,1-.28,2.42,12.31,12.31,0,0,1-2.56,5.18,12.94,12.94,0,0,1-4.61,3.42,14.42,14.42,0,0,1-5.87,1.19q-5,0-7.41-2a6.64,6.64,0,0,1-2.38-5.33,12.29,12.29,0,0,1,.29-2.48,11.53,11.53,0,0,1,2.59-5,13.17,13.17,0,0,1,4.72-3.39A14.86,14.86,0,0,1,136.72,7.56Zm-.1,3.2c-.51,0-1.05.46-1.62,1.37a23.79,23.79,0,0,0-2,5.08,21.33,21.33,0,0,0-1.16,5.25,1.66,1.66,0,0,0,.26,1.08.9.9,0,0,0,.68.26c.5,0,1-.39,1.55-1.3a28,28,0,0,0,2.05-5.33,19.38,19.38,0,0,0,1.12-5.07,1.6,1.6,0,0,0-.26-1A.75.75,0,0,0,136.62,10.76Z"/><path class="cls-1" d="M160.35,7.56q4.89,0,7.2,2a6.46,6.46,0,0,1,2.34,5.18,11.75,11.75,0,0,1-.29,2.42,12.3,12.3,0,0,1-2.55,5.18,13,13,0,0,1-4.61,3.42,14.46,14.46,0,0,1-5.87,1.19q-5,0-7.42-2a6.66,6.66,0,0,1-2.37-5.33,11.61,11.61,0,0,1,.29-2.48,11.43,11.43,0,0,1,2.59-5,13.14,13.14,0,0,1,4.71-3.39A14.94,14.94,0,0,1,160.35,7.56Zm-.11,3.2c-.5,0-1,.46-1.62,1.37a24.94,24.94,0,0,0-2,5.08,21.17,21.17,0,0,0-1.15,5.25,1.67,1.67,0,0,0,.25,1.08.94.94,0,0,0,.69.26c.5,0,1-.39,1.54-1.3A27.2,27.2,0,0,0,160,17.17a19.26,19.26,0,0,0,1.11-5.07,1.61,1.61,0,0,0-.25-1A.76.76,0,0,0,160.24,10.76Z"/><path class="cls-1" d="M190.17,21.42a1.93,1.93,0,0,0-.08.4.51.51,0,0,0,.15.39.46.46,0,0,0,.36.15.88.88,0,0,0,.72-.36c.21-.27.36-.4.43-.4s.22.08.29.25a1.5,1.5,0,0,1,.11.58,3,3,0,0,1-.76,2,5.66,5.66,0,0,1-2,1.65,6.11,6.11,0,0,1-2.81.65A6.84,6.84,0,0,1,183.4,26a3.87,3.87,0,0,1-1.84-1.8,6.33,6.33,0,0,1-2.23,1.87,6.16,6.16,0,0,1-5.76-.22,6.23,6.23,0,0,1-2.27-2.34,7.29,7.29,0,0,1-.83-3.49,15.49,15.49,0,0,1,1.23-6.15,11.68,11.68,0,0,1,3.49-4.68,7.87,7.87,0,0,1,5.08-1.8,8.33,8.33,0,0,1,2.62.36,6.25,6.25,0,0,1,2,1.08l1.22-4a1.52,1.52,0,0,0,.11-.54,1,1,0,0,0-.21-.64,2.45,2.45,0,0,0-.51-.51,4,4,0,0,1-.54-.5.67.67,0,0,1,0-.58c.14-.55.9-1,2.26-1.44A14.88,14.88,0,0,1,191.5,0a4.81,4.81,0,0,1,3.06.79,2.61,2.61,0,0,1,1,2.16,4.8,4.8,0,0,1-.26,1.55Zm-6-10.12a1.88,1.88,0,0,0-1.26-.5c-.69,0-1.38.52-2,1.55a13.56,13.56,0,0,0-1.62,3.74,13.6,13.6,0,0,0-.57,4q0,2,1.29,2a1,1,0,0,0,.79-.36,4.07,4.07,0,0,0,.62-1.26Z"/></g></g></svg>